<svg xmlns="http://www.w3.org/2000/svg" width="44" height="44" viewBox="0 0 44 44">
    <g data-name="그룹 218">
        <path data-name="패스 71" d="M37.556 6.444A22 22 0 1 0 6.444 37.556 22 22 0 1 0 37.556 6.444zM8.269 8.269A19.372 19.372 0 0 1 14.95 3.9a18.138 18.138 0 0 0-1.842 2.833 25.344 25.344 0 0 0-1.7 4.043 39.743 39.743 0 0 1-4.5-1 19.8 19.8 0 0 1 1.361-1.507zM5.348 12a39.862 39.862 0 0 0 5.368 1.273 37.457 37.457 0 0 0-.951 7.441H2.624A19.245 19.245 0 0 1 5.348 12zm-.141 19.77a19.248 19.248 0 0 1-2.583-8.48h7.145a37.42 37.42 0 0 0 .933 7.235 41.827 41.827 0 0 0-5.495 1.241zm3.061 3.966a19.758 19.758 0 0 1-1.532-1.723 41.727 41.727 0 0 1 4.659-.983 25.389 25.389 0 0 0 1.713 4.1 17.841 17.841 0 0 0 2.02 3.051 19.367 19.367 0 0 1-6.859-4.45zm12.442 5.352c-1.96-.549-3.814-2.339-5.323-5.178A22.441 22.441 0 0 1 14 32.68a69.287 69.287 0 0 1 6.711-.4zm0-11.393a72.717 72.717 0 0 0-7.441.473 34.616 34.616 0 0 1-.917-6.877h8.358v6.4zm0-8.985h-8.363a34.668 34.668 0 0 1 .931-7.064 71.653 71.653 0 0 0 7.432.521zm0-9.125a70.126 70.126 0 0 1-6.7-.447 22.438 22.438 0 0 1 1.377-3.2C16.9 5.1 18.749 3.311 20.71 2.762v8.823zm18.024.548a19.25 19.25 0 0 1 2.642 8.577h-7.14a37.5 37.5 0 0 0-.932-7.36 42.149 42.149 0 0 0 5.429-1.217zm-3-3.864a19.775 19.775 0 0 1 1.454 1.625 42.124 42.124 0 0 1-4.572.955 25.405 25.405 0 0 0-1.72-4.12A18.138 18.138 0 0 0 29.051 3.9a19.372 19.372 0 0 1 6.68 4.369zM23.29 23.29h8.358a34.57 34.57 0 0 1-.929 6.928 71.723 71.723 0 0 0-7.429-.518zm0-2.581v-6.534a72.794 72.794 0 0 0 7.447-.47 34.7 34.7 0 0 1 .916 7zm0-17.948c1.96.55 3.81 2.339 5.323 5.179a22.471 22.471 0 0 1 1.4 3.253c-2.128.233-4.392.37-6.718.4zm0 38.326v-8.804c2.331.046 4.585.2 6.695.443a22.424 22.424 0 0 1-1.372 3.184c-1.513 2.839-3.363 4.629-5.323 5.178zm12.441-5.357a19.363 19.363 0 0 1-6.86 4.441 17.84 17.84 0 0 0 2.02-3.051 25.334 25.334 0 0 0 1.691-4.031 39.7 39.7 0 0 1 4.6 1.019 19.787 19.787 0 0 1-1.451 1.623zm2.993-3.848a39.863 39.863 0 0 0-5.442-1.29 37.391 37.391 0 0 0 .949-7.3h7.145a19.25 19.25 0 0 1-2.652 8.592z" style="fill:#333"/>
    </g>
</svg>
