<svg xmlns="http://www.w3.org/2000/svg" width="127" height="40" viewBox="0 0 127 40">
    <defs>
        <clipPath id="925by4iuoa">
            <path data-name="사각형 17" transform="translate(74 89)" style="stroke:#707070;fill:#fff" d="M0 0h127v40H0z"/>
        </clipPath>
        <clipPath id="ce8r5plymb">
            <path data-name="사각형 11" style="fill:none" d="M0 0h126.993v39.768H0z"/>
        </clipPath>
    </defs>
    <g data-name="그룹 3" transform="translate(-74 -89)" style="clip-path:url(#925by4iuoa)">
        <path data-name="패스 1" d="m71.768 0-1.153 3.167-8.044 1.564L55.453.283l-2.49 3.986L49.319.222l-3.253 2.929L35.222.1l-.651 2.318L19.718.1l-.446 2.85L1.07.1.2 5.639l31.952 5L0 16.893 1.071 22.4 16.9 19.325l.637 3.076 13.457-2.787.5 2.4 13.732-2.869.536 2.681 13.1-2.618 2.528 2.807 3.878-3.492 5.056 1.84 1.237-3.4 8.7 5.434 2.025-3.241L93.814 22.4l.566-2.015 12.865 2.015.446-2.85 18.2 2.85.868-5.544L95.3 11.931 126.993 5.6l-1.1-5.5-16.229 3.238-.677-3.243-10.948 2.287L97.566.1 85.387 2.619 84.952.38l-7.913 1.538z" style="fill:#fff" transform="translate(74 89)"/>
        <path data-name="패스 2" d="M9.621 167.9H6.746v12.9h9.509v-2.773H9.621z" transform="translate(68.325 -52.251)" style="fill:#fff"/>
        <path data-name="패스 3" d="M81.866 175.561h4.386v-2.772h-4.386v-2.112h7.117V167.9h-9.992v12.9h10.18v-2.772h-7.305z" transform="translate(7.548 -52.252)" style="fill:#fff"/>
        <path data-name="패스 4" d="M342.126 175.561h4.386v-2.772h-4.386v-2.112h7.117V167.9h-9.993v12.9h10.181v-2.772h-7.305z" transform="translate(-211.398 -52.252)" style="fill:#fff"/>
        <path data-name="패스 5" d="M591.03 180.8h2.876v-5.239h4.57v-2.773h-4.57v-2.111h7.117V167.9h-9.993z" transform="translate(-423.209 -52.251)" style="fill:#fff"/>
        <path data-name="사각형 10" transform="translate(179.639 115.653)" style="fill:#fff" d="M0 0h2.876v12.895H0z"/>
        <path data-name="패스 6" d="m501.407 167.9-5.307 12.9h3l1.227-3.055h5.379l1.227 3.055h3l-5.306-12.9zm-.014 7.2 1.628-4.055 1.628 4.055z" transform="translate(-343.349 -52.252)" style="fill:#fff"/>
        <path data-name="패스 7" d="m708.19 176.9-3.044-9h-4.273v12.9h2.669v-9.784l3.31 9.784h2.678l3.31-9.784v9.784h2.669v-12.9h-4.273z" transform="translate(-515.615 -52.251)" style="fill:#fff"/>
        <g data-name="그룹 2">
            <g data-name="그룹 1" style="clip-path:url(#ce8r5plymb)" transform="translate(74 89)">
                <path data-name="패스 8" d="M185.03 172.948a20.619 20.619 0 0 0-3.087-1.05 13.153 13.153 0 0 1-2.075-.714.973.973 0 0 1-.618-.9c0-.677.884-1.227 2.022-1.227s2.506.442 2.506 1.847h2.875a4.06 4.06 0 0 0-.733-2.463 5.381 5.381 0 0 0-4.538-1.922c-4.915 0-5.165 3.246-5.165 3.9a3.221 3.221 0 0 0 2.077 3.067 17.407 17.407 0 0 0 2.457.842c.687.2 1.759.48 2.144.636.65.262.961.584.961 1.089 0 1.061-1.52 1.265-2.273 1.265-2.334 0-2.665-1.467-2.72-1.913h-2.875a3.993 3.993 0 0 0 .926 2.616 5.83 5.83 0 0 0 4.559 1.835c3.281 0 5.4-1.566 5.4-3.99a3.071 3.071 0 0 0-1.845-2.919" transform="translate(-148.052 -140.089)" style="fill:#fff"/>
                <path data-name="패스 9" d="M264.736 172.948a20.625 20.625 0 0 0-3.087-1.05 13.153 13.153 0 0 1-2.075-.714.973.973 0 0 1-.618-.9c0-.677.884-1.227 2.022-1.227s2.506.442 2.506 1.847h2.875a4.059 4.059 0 0 0-.733-2.463 5.381 5.381 0 0 0-4.538-1.922c-4.915 0-5.165 3.246-5.165 3.9a3.221 3.221 0 0 0 2.077 3.068 17.406 17.406 0 0 0 2.457.842c.687.2 1.759.48 2.144.636.65.262.961.584.961 1.089 0 1.061-1.52 1.265-2.273 1.265-2.334 0-2.665-1.467-2.72-1.913H255.7a3.993 3.993 0 0 0 .926 2.616 5.83 5.83 0 0 0 4.559 1.835c3.281 0 5.4-1.566 5.4-3.99a3.071 3.071 0 0 0-1.845-2.919" transform="translate(-215.106 -140.089)" style="fill:#fff"/>
                <path data-name="패스 10" d="M428.893 171.871a3.968 3.968 0 0 0-3.967-3.967H418.1v12.9h2.708v-4.961h2.88l2.806 4.961h3.03l-3-5.3a3.962 3.962 0 0 0 2.366-3.63m-4.084 1.195h-4v-2.389h4a1.194 1.194 0 1 1 0 2.389" transform="translate(-351.729 -141.251)" style="fill:#fff"/>
            </g>
        </g>
    </g>
</svg>
