<svg xmlns="http://www.w3.org/2000/svg" width="129" height="40" viewBox="0 0 129 40">
    <defs>
        <clipPath id="cji8mx5h5a">
            <path data-name="사각형 6362" transform="translate(590 50)" style="fill:#fff;stroke:#707070" d="M0 0h129v40H0z"/>
        </clipPath>
        <clipPath id="cjtgs5t67b">
            <path data-name="사각형 23" d="M0 0h128.984v40.391H0z"/>
        </clipPath>
    </defs>
    <g data-name="마스크 그룹 461" transform="translate(-590 -50)" style="clip-path:url(#cji8mx5h5a)">
        <g data-name="그룹 185">
            <path data-name="사각형 12" d="m656.074 68.542 6.82-18.737 5.355 1.95-6.82 18.736z"/>
            <path data-name="사각형 13" d="m635.856 53.845 4.235-3.813 16.496 18.32-4.235 3.813z"/>
            <path data-name="사각형 14" d="m635.362 66.387 82.505-16.485 1.117 5.59-82.505 16.485z"/>
            <path data-name="사각형 15" d="m620.822 66.59 79.873-16.69 1.166 5.58-79.873 16.69z"/>
            <path data-name="사각형 16" d="m590 66.963 86.283-16.77 1.088 5.595-86.283 16.77z"/>
            <path data-name="사각형 17" d="m606.654 66.979 82.441-17.076 1.156 5.582-82.44 17.076z"/>
            <path data-name="사각형 18" d="m624.232 55.397 1.542-5.487 61.052 17.16-1.542 5.488z"/>
            <path data-name="사각형 19" d="m643.302 54.927 3.02-4.833 28.215 17.634-3.02 4.833z"/>
            <path data-name="사각형 20" d="m609.145 55.533.882-5.63 108.72 17.025-.881 5.63z"/>
            <path data-name="사각형 21" d="m590.205 55.533.882-5.63 108.72 17.025-.881 5.63z"/>
            <path data-name="패스 1" d="M591.087 76.877v13.1h9.658v-2.816h-6.737V76.877z"/>
            <path data-name="패스 2" d="M602.735 76.877v13.1h10.34v-2.816h-7.42v-2.505h4.455v-2.819h-4.454v-2.145h7.229v-2.815z"/>
            <path data-name="패스 3" d="M644.697 76.877v13.1h10.34v-2.816h-7.419v-2.505h4.451v-2.819h-4.455v-2.145h7.229v-2.815z"/>
            <path data-name="패스 4" d="M685.291 76.877v13.1h2.921v-5.321h4.641v-2.819h-4.641v-2.145h7.225v-2.815z"/>
            <path data-name="사각형 22" d="M697.295 76.876h2.921v13.098h-2.921z"/>
            <path data-name="패스 5" d="m677.015 80.067 1.654 4.119h-3.307zm-1.639-3.191-5.39 13.1h3.052l1.246-3.1h5.463l1.246 3.1h3.052l-5.39-13.1z"/>
            <path data-name="패스 6" d="m713.525 76.877-3.092 9.141-3.092-9.141h-4.34v13.1h2.711v-9.941l3.361 9.938h2.72l3.361-9.938v9.938h2.711v-13.1z"/>
            <g data-name="그룹 2">
                <g data-name="그룹 1" style="clip-path:url(#cjtgs5t67b)" transform="translate(590 49.805)">
                    <path data-name="패스 7" d="M37.558 33.379a20.954 20.954 0 0 0-3.135-1.067 13.343 13.343 0 0 1-2.107-.725.988.988 0 0 1-.628-.91c0-.687.9-1.246 2.053-1.246s2.545.449 2.545 1.876h2.92a4.123 4.123 0 0 0-.744-2.5 5.465 5.465 0 0 0-4.609-1.953c-4.992 0-5.245 3.3-5.245 3.958a3.271 3.271 0 0 0 2.11 3.115 17.67 17.67 0 0 0 2.5.855c.7.2 1.786.488 2.178.646.66.267.976.593.976 1.106 0 1.077-1.544 1.285-2.309 1.285-2.37 0-2.707-1.49-2.763-1.943h-2.92a4.057 4.057 0 0 0 .941 2.656 5.923 5.923 0 0 0 4.631 1.864c3.332 0 5.485-1.591 5.485-4.053a3.119 3.119 0 0 0-1.874-2.964"/>
                    <path data-name="패스 8" d="M50.409 33.379a20.953 20.953 0 0 0-3.135-1.067 13.344 13.344 0 0 1-2.107-.725.988.988 0 0 1-.628-.91c0-.687.9-1.246 2.053-1.246s2.545.449 2.545 1.876h2.92a4.123 4.123 0 0 0-.744-2.5 5.465 5.465 0 0 0-4.609-1.953c-4.992 0-5.245 3.3-5.245 3.958a3.271 3.271 0 0 0 2.11 3.115 17.67 17.67 0 0 0 2.5.855c.7.2 1.786.488 2.178.646.66.267.976.593.976 1.106 0 1.077-1.543 1.285-2.308 1.285-2.37 0-2.707-1.49-2.763-1.943h-2.92a4.057 4.057 0 0 0 .941 2.656 5.923 5.923 0 0 0 4.631 1.864c3.332 0 5.485-1.591 5.485-4.053a3.119 3.119 0 0 0-1.874-2.964"/>
                    <path data-name="패스 9" d="M75.97 34.788a4.03 4.03 0 0 0-1.626-7.717H67.41v13.1h2.75v-5.046h2.925l2.849 5.039h3.078zm-1.741-2.475h-4.064v-2.426h4.064a1.213 1.213 0 1 1 0 2.426"/>
                </g>
            </g>
        </g>
    </g>
</svg>
